<?xml version="1.0" standalone="no"?>
<!DOCTYPE svg PUBLIC "-//W3C//DTD SVG 20010904//EN"
 "http://www.w3.org/TR/2001/REC-SVG-20010904/DTD/svg10.dtd">
<svg version="1.0" xmlns="http://www.w3.org/2000/svg"
 width="512.000000pt" height="512.000000pt" viewBox="0 0 512.000000 512.000000"
 preserveAspectRatio="xMidYMid meet">
<g transform="translate(0.000000,512.000000) scale(0.100000,-0.100000)"
fill="#000000" stroke="none">
<path d="M960 4440 l0 -680 680 0 680 0 0 680 0 680 -680 0 -680 0 0 -680z"/>
<path d="M960 2560 l0 -680 680 0 680 0 0 680 0 680 -680 0 -680 0 0 -680z
m1160 0 l0 -480 -480 0 -480 0 0 480 0 480 480 0 480 0 0 -480z"/>
<path d="M960 680 l0 -680 1600 0 1600 0 0 680 0 680 -1600 0 -1600 0 0 -680z"/>
</g>
</svg>
